<?xml version="1.0" standalone="no"?>
<!DOCTYPE svg PUBLIC "-//W3C//DTD SVG 20010904//EN"
 "http://www.w3.org/TR/2001/REC-SVG-20010904/DTD/svg10.dtd">
<svg version="1.0" xmlns="http://www.w3.org/2000/svg"
 width="128.000000pt" height="128.000000pt" viewBox="0 0 128.000000 128.000000"
 preserveAspectRatio="xMidYMid meet">
<metadata>
Created by potrace 1.11, written by Peter Selinger 2001-2013
</metadata>
<g transform="translate(0.000000,128.000000) scale(0.100000,-0.100000)"
fill="#000000" stroke="none">
<path d="M919 1186 c-2 -2 -28 -7 -58 -11 -30 -4 -63 -9 -75 -11 -12 -2 -64
-11 -116 -19 -52 -9 -106 -18 -119 -20 -13 -2 -44 -7 -68 -11 -27 -4 -47 -13
-53 -25 -6 -10 -10 -153 -10 -348 l0 -330 -42 5 c-32 4 -54 -1 -87 -18 -65
-34 -86 -67 -86 -139 0 -50 3 -61 23 -74 12 -9 20 -20 18 -24 -4 -6 10 -10 51
-13 7 -1 15 -8 18 -17 6 -14 8 -13 21 3 8 11 14 15 14 10 0 -6 7 -11 15 -11 8
0 11 5 8 10 -4 6 0 8 10 4 9 -3 19 -2 22 4 4 5 11 7 16 4 5 -4 9 1 9 9 0 19
11 20 30 3 12 -10 12 -9 1 5 -10 14 -9 22 10 47 22 29 22 38 25 322 1 160 6
295 11 299 4 4 71 17 148 30 77 12 149 24 160 26 11 2 40 7 65 10 l46 6 -1
-213 0 -213 -55 3 c-66 3 -115 -24 -142 -79 -22 -42 -23 -108 -3 -134 8 -10
12 -22 10 -27 -3 -4 0 -11 6 -15 8 -4 9 -3 5 4 -4 7 -2 12 3 12 6 0 11 -4 11
-10 0 -5 7 -10 15 -10 8 0 15 -4 15 -10 0 -5 7 -6 17 -3 10 4 14 2 9 -5 -4 -7
2 -8 24 -2 28 8 34 6 31 -13 -1 -5 3 -6 9 -2 6 3 8 11 5 16 -6 9 8 13 34 10 8
-2 10 2 5 10 -5 9 -2 10 10 6 9 -4 14 -3 11 2 -3 5 3 16 13 23 42 30 45 59 45
481 0 221 -3 413 -7 425 -6 17 -15 22 -40 22 -18 0 -35 -2 -37 -4z"/>
</g>
</svg>
